<?xml version="1.0" standalone="no"?><svg xmlns="http://www.w3.org/2000/svg" viewBox="0 0 1440 320"><path fill="#5000ca" fill-opacity="0.9" d="M0,64L30,64C60,64,120,64,180,69.3C240,75,300,85,360,85.3C420,85,480,75,540,64C600,53,660,43,720,58.7C780,75,840,117,900,128C960,139,1020,117,1080,106.7C1140,96,1200,96,1260,90.7C1320,85,1380,75,1410,69.3L1440,64L1440,320L1410,320C1380,320,1320,320,1260,320C1200,320,1140,320,1080,320C1020,320,960,320,900,320C840,320,780,320,720,320C660,320,600,320,540,320C480,320,420,320,360,320C300,320,240,320,180,320C120,320,60,320,30,320L0,320Z"></path></svg>